# File generated by IfcOpenShell 0.6.0b0
mtllib as_planned_LW_Campus_VAL_IfcPlate_1ggfnQO5j1IRjaArpGm8DB.mtl
g product-6aaa9c5a-605b-4149-bb64-2b5cd0c0834b-body
s 1
v 1.235 -20.975 0.7
v 1.235 -22.37 0.7
v 1.485 -20.975 0.7
v 1.485 -20.8 0.7
v 1.235 -20.8 0.7
v 1.235 -19.42 0.7
v 0.125 -19.42 0.7
v 0.125 -22.37 0.7
v 1.235 -20.975 0.7
v 1.485 -20.975 0.7
v 1.235 -20.975 0.55
v 1.485 -20.975 0.55
v 1.235 -20.975 0.7
v 1.235 -22.37 0.7
v 1.235 -22.37 0.55
v 1.235 -20.975 0.55
v 1.235 -22.37 0.55
v 1.485 -22.37 0.55
v 1.235 -22.37 0.7
v 0.125 -22.37 0.7
v 0.125 -22.37 0.35
v 1.485 -22.37 0.35
v 0.125 -22.37 0.7
v 0.125 -22.37 0.35
v 0.125 -19.42 0.7
v 0.125 -19.42 0.35
v 1.485 -19.42 0.55
v 1.235 -19.42 0.55
v 1.485 -19.42 0.35
v 0.125 -19.42 0.35
v 0.125 -19.42 0.7
v 1.235 -19.42 0.7
v 1.235 -20.8 0.7
v 1.235 -19.42 0.7
v 1.235 -20.8 0.55
v 1.235 -19.42 0.55
v 1.485 -20.8 0.7
v 1.235 -20.8 0.7
v 1.485 -20.8 0.55
v 1.235 -20.8 0.55
v 1.485 -20.975 0.55
v 1.485 -22.37 0.55
v 1.485 -22.37 0.35
v 1.485 -19.42 0.35
v 1.485 -19.42 0.55
v 1.485 -20.8 0.55
v 1.485 -20.8 0.7
v 1.485 -20.975 0.7
v 1.235 -20.975 0.55
v 1.235 -22.37 0.55
v 1.485 -22.37 0.55
v 1.485 -20.975 0.55
v 0.125 -22.37 0.35
v 1.485 -22.37 0.35
v 0.125 -19.42 0.35
v 1.485 -19.42 0.35
v 1.235 -19.42 0.55
v 1.235 -20.8 0.55
v 1.485 -20.8 0.55
v 1.485 -19.42 0.55
vn 1.33832354358491e-16 0 1
vn 1.33832354358491e-16 0 1
vn 1.33832354358491e-16 0 1
vn 1.33832354358491e-16 0 1
vn 1.33832354358491e-16 0 1
vn 1.33832354358491e-16 0 1
vn 1.33832354358491e-16 0 1
vn 1.33832354358491e-16 0 1
vn 0 -1 0
vn 0 -1 0
vn 0 -1 0
vn 0 -1 0
vn 1 0 0
vn 1 0 0
vn 1 0 0
vn 1 0 0
vn 0 -1 0
vn 0 -1 0
vn 0 -1 0
vn 0 -1 0
vn 0 -1 0
vn 0 -1 0
vn -1 0 0
vn -1 0 0
vn -1 0 0
vn -1 0 0
vn 0 1 0
vn 0 1 0
vn 0 1 0
vn 0 1 0
vn 0 1 0
vn 0 1 0
vn 1 0 0
vn 1 0 0
vn 1 0 0
vn 1 0 0
vn 0 1 0
vn 0 1 0
vn 0 1 0
vn 0 1 0
vn 1 0 0
vn 1 0 0
vn 1 0 0
vn 1 0 0
vn 1 0 0
vn 1 0 0
vn 1 0 0
vn 1 0 0
vn 0 0 1
vn 0 0 1
vn 0 0 1
vn 0 0 1
vn 0 0 -1
vn 0 0 -1
vn 0 0 -1
vn 0 0 -1
vn 0 0 1
vn 0 0 1
vn 0 0 1
vn 0 0 1
usemtl IfcPlate
f 1//1 8//8 2//2
f 4//4 1//1 3//3
f 4//4 5//5 1//1
f 7//7 8//8 1//1
f 7//7 1//1 5//5
f 6//6 7//7 5//5
f 12//12 10//10 9//9
f 12//12 9//9 11//11
f 14//14 15//15 16//16
f 14//14 16//16 13//13
f 17//17 19//19 20//20
f 17//17 20//20 21//21
f 22//22 18//18 17//17
f 22//22 17//17 21//21
f 24//24 23//23 25//25
f 24//24 25//25 26//26
f 28//28 30//30 31//31
f 29//29 30//30 28//28
f 32//32 28//28 31//31
f 27//27 29//29 28//28
f 33//33 35//35 36//36
f 33//33 36//36 34//34
f 37//37 39//39 40//40
f 37//37 40//40 38//38
f 46//46 44//44 45//45
f 48//48 46//46 47//47
f 48//48 41//41 46//46
f 42//42 43//43 41//41
f 43//43 44//44 46//46
f 43//43 46//46 41//41
f 52//52 49//49 50//50
f 52//52 50//50 51//51
f 55//55 54//54 53//53
f 55//55 56//56 54//54
f 60//60 57//57 58//58
f 60//60 58//58 59//59
